<mxfile host="app.diagrams.net" modified="2024-03-16T18:52:18.166Z" agent="Mozilla/5.0 (Macintosh; Intel Mac OS X 10_15_7) AppleWebKit/537.36 (KHTML, like Gecko) Chrome/117.0.0.0 Safari/537.36" etag="q6cbrf-qgC00oFmeQu5u" version="24.0.7" type="device">
  <diagram id="C5RBs43oDa-KdzZeNtuy" name="Page-1">
    <mxGraphModel dx="1306" dy="837" grid="1" gridSize="10" guides="1" tooltips="1" connect="1" arrows="1" fold="1" page="1" pageScale="1" pageWidth="827" pageHeight="1169" math="0" shadow="0">
      <root>
        <mxCell id="WIyWlLk6GJQsqaUBKTNV-0" />
        <mxCell id="WIyWlLk6GJQsqaUBKTNV-1" parent="WIyWlLk6GJQsqaUBKTNV-0" />
        <mxCell id="WIyWlLk6GJQsqaUBKTNV-7" value="Сервис учеников" style="rounded=1;whiteSpace=wrap;html=1;fontSize=12;glass=0;strokeWidth=1;shadow=0;" parent="WIyWlLk6GJQsqaUBKTNV-1" vertex="1">
          <mxGeometry x="370" y="1600" width="120" height="40" as="geometry" />
        </mxCell>
        <mxCell id="jaama6yFhErnNW8vCP5A-0" value="БД" style="shape=cylinder3;whiteSpace=wrap;html=1;boundedLbl=1;backgroundOutline=1;size=15;" vertex="1" parent="WIyWlLk6GJQsqaUBKTNV-1">
          <mxGeometry x="400" y="1680" width="60" height="60" as="geometry" />
        </mxCell>
        <mxCell id="jaama6yFhErnNW8vCP5A-3" value="Сервис учителей" style="rounded=1;whiteSpace=wrap;html=1;fontSize=12;glass=0;strokeWidth=1;shadow=0;" vertex="1" parent="WIyWlLk6GJQsqaUBKTNV-1">
          <mxGeometry x="370" y="1310" width="120" height="40" as="geometry" />
        </mxCell>
        <mxCell id="jaama6yFhErnNW8vCP5A-4" value="БД" style="shape=cylinder3;whiteSpace=wrap;html=1;boundedLbl=1;backgroundOutline=1;size=15;" vertex="1" parent="WIyWlLk6GJQsqaUBKTNV-1">
          <mxGeometry x="400" y="1210" width="60" height="60" as="geometry" />
        </mxCell>
        <mxCell id="jaama6yFhErnNW8vCP5A-6" value="Сервис расписания" style="rounded=1;whiteSpace=wrap;html=1;fontSize=12;glass=0;strokeWidth=1;shadow=0;" vertex="1" parent="WIyWlLk6GJQsqaUBKTNV-1">
          <mxGeometry x="540" y="1450" width="120" height="40" as="geometry" />
        </mxCell>
        <mxCell id="jaama6yFhErnNW8vCP5A-7" value="БД" style="shape=cylinder3;whiteSpace=wrap;html=1;boundedLbl=1;backgroundOutline=1;size=15;" vertex="1" parent="WIyWlLk6GJQsqaUBKTNV-1">
          <mxGeometry x="720" y="1440" width="60" height="60" as="geometry" />
        </mxCell>
        <mxCell id="jaama6yFhErnNW8vCP5A-8" value="Сервис аналитики" style="rounded=1;whiteSpace=wrap;html=1;fontSize=12;glass=0;strokeWidth=1;shadow=0;" vertex="1" parent="WIyWlLk6GJQsqaUBKTNV-1">
          <mxGeometry x="200" y="1450" width="120" height="40" as="geometry" />
        </mxCell>
        <mxCell id="jaama6yFhErnNW8vCP5A-9" value="" style="endArrow=classic;html=1;rounded=0;entryX=0;entryY=0.5;entryDx=0;entryDy=0;exitX=1;exitY=0.5;exitDx=0;exitDy=0;" edge="1" parent="WIyWlLk6GJQsqaUBKTNV-1" source="jaama6yFhErnNW8vCP5A-8" target="jaama6yFhErnNW8vCP5A-6">
          <mxGeometry width="50" height="50" relative="1" as="geometry">
            <mxPoint x="640" y="1380" as="sourcePoint" />
            <mxPoint x="650" y="1540" as="targetPoint" />
          </mxGeometry>
        </mxCell>
        <mxCell id="jaama6yFhErnNW8vCP5A-10" value="" style="endArrow=classic;html=1;rounded=0;" edge="1" parent="WIyWlLk6GJQsqaUBKTNV-1" source="jaama6yFhErnNW8vCP5A-8" target="WIyWlLk6GJQsqaUBKTNV-7">
          <mxGeometry width="50" height="50" relative="1" as="geometry">
            <mxPoint x="400" y="1350" as="sourcePoint" />
            <mxPoint x="490" y="1430" as="targetPoint" />
          </mxGeometry>
        </mxCell>
        <mxCell id="jaama6yFhErnNW8vCP5A-11" value="" style="endArrow=classic;html=1;rounded=0;exitX=0.75;exitY=0;exitDx=0;exitDy=0;entryX=0.25;entryY=1;entryDx=0;entryDy=0;" edge="1" parent="WIyWlLk6GJQsqaUBKTNV-1" source="jaama6yFhErnNW8vCP5A-8" target="jaama6yFhErnNW8vCP5A-3">
          <mxGeometry width="50" height="50" relative="1" as="geometry">
            <mxPoint x="600" y="1590" as="sourcePoint" />
            <mxPoint x="650" y="1540" as="targetPoint" />
          </mxGeometry>
        </mxCell>
        <mxCell id="jaama6yFhErnNW8vCP5A-12" value="" style="endArrow=classic;html=1;rounded=0;entryX=0.5;entryY=1;entryDx=0;entryDy=0;entryPerimeter=0;" edge="1" parent="WIyWlLk6GJQsqaUBKTNV-1" target="jaama6yFhErnNW8vCP5A-4">
          <mxGeometry width="50" height="50" relative="1" as="geometry">
            <mxPoint x="430" y="1310" as="sourcePoint" />
            <mxPoint x="730" y="1410" as="targetPoint" />
          </mxGeometry>
        </mxCell>
        <mxCell id="jaama6yFhErnNW8vCP5A-13" value="" style="endArrow=classic;html=1;rounded=0;entryX=0.75;entryY=1;entryDx=0;entryDy=0;exitX=0.25;exitY=0;exitDx=0;exitDy=0;" edge="1" parent="WIyWlLk6GJQsqaUBKTNV-1" source="jaama6yFhErnNW8vCP5A-6" target="jaama6yFhErnNW8vCP5A-3">
          <mxGeometry width="50" height="50" relative="1" as="geometry">
            <mxPoint x="690" y="1500" as="sourcePoint" />
            <mxPoint x="740" y="1450" as="targetPoint" />
          </mxGeometry>
        </mxCell>
        <mxCell id="jaama6yFhErnNW8vCP5A-14" value="" style="endArrow=classic;html=1;rounded=0;entryX=0.75;entryY=0;entryDx=0;entryDy=0;exitX=0.25;exitY=1;exitDx=0;exitDy=0;" edge="1" parent="WIyWlLk6GJQsqaUBKTNV-1" source="jaama6yFhErnNW8vCP5A-6" target="WIyWlLk6GJQsqaUBKTNV-7">
          <mxGeometry width="50" height="50" relative="1" as="geometry">
            <mxPoint x="690" y="1500" as="sourcePoint" />
            <mxPoint x="740" y="1450" as="targetPoint" />
          </mxGeometry>
        </mxCell>
        <mxCell id="jaama6yFhErnNW8vCP5A-15" value="" style="endArrow=classic;html=1;rounded=0;exitX=1;exitY=0.5;exitDx=0;exitDy=0;entryX=0;entryY=0.5;entryDx=0;entryDy=0;entryPerimeter=0;" edge="1" parent="WIyWlLk6GJQsqaUBKTNV-1" source="jaama6yFhErnNW8vCP5A-6" target="jaama6yFhErnNW8vCP5A-7">
          <mxGeometry width="50" height="50" relative="1" as="geometry">
            <mxPoint x="690" y="1500" as="sourcePoint" />
            <mxPoint x="740" y="1450" as="targetPoint" />
          </mxGeometry>
        </mxCell>
        <mxCell id="jaama6yFhErnNW8vCP5A-16" value="" style="endArrow=classic;html=1;rounded=0;entryX=0.5;entryY=0;entryDx=0;entryDy=0;entryPerimeter=0;exitX=0.5;exitY=1;exitDx=0;exitDy=0;" edge="1" parent="WIyWlLk6GJQsqaUBKTNV-1" source="WIyWlLk6GJQsqaUBKTNV-7" target="jaama6yFhErnNW8vCP5A-0">
          <mxGeometry width="50" height="50" relative="1" as="geometry">
            <mxPoint x="680" y="1510" as="sourcePoint" />
            <mxPoint x="730" y="1460" as="targetPoint" />
          </mxGeometry>
        </mxCell>
        <mxCell id="jaama6yFhErnNW8vCP5A-21" value="Kafka" style="rounded=1;whiteSpace=wrap;html=1;fontSize=12;glass=0;strokeWidth=1;shadow=0;" vertex="1" parent="WIyWlLk6GJQsqaUBKTNV-1">
          <mxGeometry x="20" y="1450" width="120" height="40" as="geometry" />
        </mxCell>
        <mxCell id="jaama6yFhErnNW8vCP5A-22" value="" style="endArrow=classic;html=1;rounded=0;entryX=1;entryY=0.5;entryDx=0;entryDy=0;exitX=0;exitY=0.5;exitDx=0;exitDy=0;" edge="1" parent="WIyWlLk6GJQsqaUBKTNV-1" source="jaama6yFhErnNW8vCP5A-8" target="jaama6yFhErnNW8vCP5A-21">
          <mxGeometry width="50" height="50" relative="1" as="geometry">
            <mxPoint x="490" y="1490" as="sourcePoint" />
            <mxPoint x="540" y="1440" as="targetPoint" />
          </mxGeometry>
        </mxCell>
        <mxCell id="jaama6yFhErnNW8vCP5A-23" value="&lt;h1 style=&quot;margin-top: 0px;&quot;&gt;Портал учебного заведения&lt;/h1&gt;&lt;p style=&quot;text-align: left;&quot;&gt;&lt;span style=&quot;caret-color: rgba(0, 0, 0, 0.847); color: rgba(0, 0, 0, 0.847);&quot;&gt;&lt;font face=&quot;Times New Roman&quot; style=&quot;font-size: 14px;&quot;&gt;&lt;b style=&quot;&quot;&gt;Идея:&lt;/b&gt; ускорить и систематизировать стандартные процессы учебного заведения, такие как ведение расписания в разном виде для учеников и учителей и аналитика пройденного учебного процесса на основании информации вводимой учителями и учениками.&lt;/font&gt;&lt;/span&gt;&lt;br&gt;&lt;/p&gt;" style="text;html=1;whiteSpace=wrap;overflow=hidden;rounded=0;align=center;" vertex="1" parent="WIyWlLk6GJQsqaUBKTNV-1">
          <mxGeometry x="40" y="20" width="760" height="100" as="geometry" />
        </mxCell>
        <mxCell id="jaama6yFhErnNW8vCP5A-24" value="&lt;h1 style=&quot;margin-top: 0px;&quot;&gt;&lt;font face=&quot;Times New Roman&quot;&gt;&lt;font style=&quot;font-size: 14px;&quot;&gt;&lt;span style=&quot;background-color: initial;&quot;&gt;Роли:&amp;nbsp;&lt;/span&gt;&lt;/font&gt;&lt;font style=&quot;font-size: 14px; font-weight: normal;&quot;&gt;администрация, учителя и ученики&lt;/font&gt;&lt;/font&gt;&lt;/h1&gt;" style="text;html=1;whiteSpace=wrap;overflow=hidden;rounded=0;" vertex="1" parent="WIyWlLk6GJQsqaUBKTNV-1">
          <mxGeometry x="40" y="120" width="760" height="40" as="geometry" />
        </mxCell>
        <mxCell id="jaama6yFhErnNW8vCP5A-25" value="&lt;h1 style=&quot;margin-top: 0px;&quot;&gt;&lt;font face=&quot;Times New Roman&quot;&gt;&lt;font style=&quot;font-size: 14px;&quot;&gt;&lt;span style=&quot;background-color: initial;&quot;&gt;Сущности:&amp;nbsp;&lt;/span&gt;&lt;/font&gt;&lt;font style=&quot;font-size: 14px; font-weight: normal;&quot;&gt;расписание, оценки, программа, карточка учителя, карточка ученика&lt;/font&gt;&lt;/font&gt;&lt;/h1&gt;" style="text;html=1;whiteSpace=wrap;overflow=hidden;rounded=0;" vertex="1" parent="WIyWlLk6GJQsqaUBKTNV-1">
          <mxGeometry x="40" y="160" width="760" height="40" as="geometry" />
        </mxCell>
        <mxCell id="jaama6yFhErnNW8vCP5A-26" value="&lt;h1 style=&quot;margin-top: 0px;&quot;&gt;&lt;div style=&quot;caret-color: rgba(0, 0, 0, 0.847); color: rgba(0, 0, 0, 0.847);&quot;&gt;&lt;font style=&quot;font-size: 14px;&quot; face=&quot;Times New Roman&quot;&gt;Пользовательские сценарии:&lt;/font&gt;&lt;/div&gt;&lt;div style=&quot;caret-color: rgba(0, 0, 0, 0.847); color: rgba(0, 0, 0, 0.847); font-family: -apple-system-font; font-size: 12px; font-weight: 400;&quot;&gt;0.1&lt;/div&gt;&lt;div style=&quot;caret-color: rgba(0, 0, 0, 0.847); color: rgba(0, 0, 0, 0.847); font-family: -apple-system-font; font-size: 12px; font-weight: 400;&quot;&gt;Есть авторизованный администратор&amp;nbsp;&lt;/div&gt;&lt;div style=&quot;caret-color: rgba(0, 0, 0, 0.847); color: rgba(0, 0, 0, 0.847); font-family: -apple-system-font; font-size: 12px; font-weight: 400;&quot;&gt;И есть учебное заведение&amp;nbsp;&lt;br&gt;&lt;/div&gt;&lt;div style=&quot;caret-color: rgba(0, 0, 0, 0.847); color: rgba(0, 0, 0, 0.847); font-family: -apple-system-font; font-size: 12px; font-weight: 400;&quot;&gt;И администратор переходит на вкладку Расписание&lt;/div&gt;&lt;div style=&quot;caret-color: rgba(0, 0, 0, 0.847); color: rgba(0, 0, 0, 0.847); font-family: -apple-system-font; font-size: 12px; font-weight: 400;&quot;&gt;Тогда отдается расписание&lt;/div&gt;&lt;div style=&quot;caret-color: rgba(0, 0, 0, 0.847); color: rgba(0, 0, 0, 0.847); font-family: -apple-system-font; font-size: 12px; font-weight: 400;&quot;&gt;И есть возможность просмотра расписания в разрезе периода времени или учителя&lt;/div&gt;&lt;div style=&quot;caret-color: rgba(0, 0, 0, 0.847); color: rgba(0, 0, 0, 0.847); font-family: -apple-system-font; font-size: 12px; font-weight: 400;&quot;&gt;&lt;br&gt;&lt;/div&gt;&lt;div style=&quot;caret-color: rgba(0, 0, 0, 0.847); color: rgba(0, 0, 0, 0.847); font-family: -apple-system-font; font-size: 12px; font-weight: 400;&quot;&gt;0.2&lt;/div&gt;&lt;div style=&quot;caret-color: rgba(0, 0, 0, 0.847); color: rgba(0, 0, 0, 0.847); font-family: -apple-system-font; font-size: 12px; font-weight: 400;&quot;&gt;Когда администратор переходит в режим редактирования&lt;/div&gt;&lt;div style=&quot;caret-color: rgba(0, 0, 0, 0.847); color: rgba(0, 0, 0, 0.847); font-family: -apple-system-font; font-size: 12px; font-weight: 400;&quot;&gt;Тогда появляется возможность редактировать расписание&lt;/div&gt;&lt;div style=&quot;caret-color: rgba(0, 0, 0, 0.847); color: rgba(0, 0, 0, 0.847); font-family: -apple-system-font; font-size: 12px; font-weight: 400;&quot;&gt;&lt;br&gt;&lt;/div&gt;&lt;div style=&quot;caret-color: rgba(0, 0, 0, 0.847); color: rgba(0, 0, 0, 0.847); font-family: -apple-system-font; font-size: 12px; font-weight: 400;&quot;&gt;0.3&amp;nbsp;&lt;/div&gt;&lt;div style=&quot;caret-color: rgba(0, 0, 0, 0.847); color: rgba(0, 0, 0, 0.847); font-family: -apple-system-font; font-size: 12px; font-weight: 400;&quot;&gt;&lt;div&gt;Есть авторизованный администратор&amp;nbsp;&lt;/div&gt;&lt;div&gt;И есть учебное заведение&amp;nbsp;&lt;br&gt;&lt;/div&gt;&lt;div&gt;И администратор переходит на вкладку Статистика&lt;/div&gt;&lt;/div&gt;&lt;div style=&quot;caret-color: rgba(0, 0, 0, 0.847); color: rgba(0, 0, 0, 0.847); font-family: -apple-system-font; font-size: 12px; font-weight: 400;&quot;&gt;Тогда отдается набор фильтров для запроса статистики&lt;/div&gt;&lt;div style=&quot;caret-color: rgba(0, 0, 0, 0.847); color: rgba(0, 0, 0, 0.847); font-family: -apple-system-font; font-size: 12px; font-weight: 400;&quot;&gt;&lt;br&gt;&lt;/div&gt;&lt;div style=&quot;caret-color: rgba(0, 0, 0, 0.847); color: rgba(0, 0, 0, 0.847); font-family: -apple-system-font; font-size: 12px; font-weight: 400;&quot;&gt;0.4&lt;/div&gt;&lt;div style=&quot;caret-color: rgba(0, 0, 0, 0.847); color: rgba(0, 0, 0, 0.847); font-family: -apple-system-font; font-size: 12px; font-weight: 400;&quot;&gt;Когда администратор заполняет необходимые фильтры&lt;/div&gt;&lt;div style=&quot;caret-color: rgba(0, 0, 0, 0.847); color: rgba(0, 0, 0, 0.847); font-family: -apple-system-font; font-size: 12px; font-weight: 400;&quot;&gt;Тогда отдается аналитика учебного процесса&lt;/div&gt;&lt;div style=&quot;caret-color: rgba(0, 0, 0, 0.847); color: rgba(0, 0, 0, 0.847); font-family: -apple-system-font; font-size: 12px; font-weight: 400;&quot;&gt;&lt;br&gt;&lt;/div&gt;&lt;div style=&quot;caret-color: rgba(0, 0, 0, 0.847); color: rgba(0, 0, 0, 0.847); font-family: -apple-system-font; font-size: 12px; font-weight: 400;&quot;&gt;1.1&lt;/div&gt;&lt;div style=&quot;caret-color: rgba(0, 0, 0, 0.847); color: rgba(0, 0, 0, 0.847); font-family: -apple-system-font; font-size: 12px; font-weight: 400;&quot;&gt;Есть авторизованный ученик&lt;/div&gt;&lt;div style=&quot;caret-color: rgba(0, 0, 0, 0.847); color: rgba(0, 0, 0, 0.847); font-family: -apple-system-font; font-size: 12px; font-weight: 400;&quot;&gt;И есть учебное заведение&amp;nbsp;&lt;/div&gt;&lt;div style=&quot;caret-color: rgba(0, 0, 0, 0.847); color: rgba(0, 0, 0, 0.847); font-family: -apple-system-font; font-size: 12px; font-weight: 400;&quot;&gt;И ученик переходит на вкладку Расписание&lt;/div&gt;&lt;div style=&quot;caret-color: rgba(0, 0, 0, 0.847); color: rgba(0, 0, 0, 0.847); font-family: -apple-system-font; font-size: 12px; font-weight: 400;&quot;&gt;Тогда отдается расписание для данного ученика&lt;/div&gt;&lt;div style=&quot;caret-color: rgba(0, 0, 0, 0.847); color: rgba(0, 0, 0, 0.847); font-family: -apple-system-font; font-size: 12px; font-weight: 400;&quot;&gt;И есть возможность просмотра расписания за разные периоды времени с точностью до дня&lt;/div&gt;&lt;div style=&quot;caret-color: rgba(0, 0, 0, 0.847); color: rgba(0, 0, 0, 0.847); font-family: -apple-system-font; font-size: 12px; font-weight: 400;&quot;&gt;И в описании учебного дня ученик видит список занятий&lt;/div&gt;&lt;div style=&quot;caret-color: rgba(0, 0, 0, 0.847); color: rgba(0, 0, 0, 0.847); font-family: -apple-system-font; font-size: 12px; font-weight: 400;&quot;&gt;&lt;br&gt;&lt;/div&gt;&lt;div style=&quot;caret-color: rgba(0, 0, 0, 0.847); color: rgba(0, 0, 0, 0.847); font-family: -apple-system-font; font-size: 12px; font-weight: 400;&quot;&gt;1.2&lt;/div&gt;&lt;div style=&quot;caret-color: rgba(0, 0, 0, 0.847); color: rgba(0, 0, 0, 0.847); font-family: -apple-system-font; font-size: 12px; font-weight: 400;&quot;&gt;Когда ученик нажимает на выбранное занятие&lt;/div&gt;&lt;div style=&quot;caret-color: rgba(0, 0, 0, 0.847); color: rgba(0, 0, 0, 0.847); font-family: -apple-system-font; font-size: 12px; font-weight: 400;&quot;&gt;Тогда отдается&amp;nbsp;карточка занятия&lt;br&gt;&lt;/div&gt;&lt;div style=&quot;caret-color: rgba(0, 0, 0, 0.847); color: rgba(0, 0, 0, 0.847); font-family: -apple-system-font; font-size: 12px; font-weight: 400;&quot;&gt;И программа занятия&lt;/div&gt;&lt;div style=&quot;caret-color: rgba(0, 0, 0, 0.847); color: rgba(0, 0, 0, 0.847); font-family: -apple-system-font; font-size: 12px; font-weight: 400;&quot;&gt;И информация об учителе ведущем занятие&lt;/div&gt;&lt;div style=&quot;caret-color: rgba(0, 0, 0, 0.847); color: rgba(0, 0, 0, 0.847); font-family: -apple-system-font; font-size: 12px; font-weight: 400;&quot;&gt;&lt;br&gt;&lt;/div&gt;&lt;div style=&quot;caret-color: rgba(0, 0, 0, 0.847); color: rgba(0, 0, 0, 0.847); font-family: -apple-system-font; font-size: 12px; font-weight: 400;&quot;&gt;1.3&lt;/div&gt;&lt;div style=&quot;caret-color: rgba(0, 0, 0, 0.847); color: rgba(0, 0, 0, 0.847); font-family: -apple-system-font; font-size: 12px; font-weight: 400;&quot;&gt;Когда ученик нажимает на карточку учителя&lt;br&gt;&lt;/div&gt;&lt;div style=&quot;caret-color: rgba(0, 0, 0, 0.847); color: rgba(0, 0, 0, 0.847); font-family: -apple-system-font; font-size: 12px; font-weight: 400;&quot;&gt;Тогда отдается подробная информация об учителе&lt;/div&gt;&lt;div style=&quot;caret-color: rgba(0, 0, 0, 0.847); color: rgba(0, 0, 0, 0.847); font-family: -apple-system-font; font-size: 12px; font-weight: 400;&quot;&gt;И рейтинг учителя&lt;/div&gt;&lt;div style=&quot;caret-color: rgba(0, 0, 0, 0.847); color: rgba(0, 0, 0, 0.847); font-family: -apple-system-font; font-size: 12px; font-weight: 400;&quot;&gt;&lt;br&gt;&lt;/div&gt;&lt;div style=&quot;caret-color: rgba(0, 0, 0, 0.847); color: rgba(0, 0, 0, 0.847); font-family: -apple-system-font; font-size: 12px; font-weight: 400;&quot;&gt;&lt;div&gt;2.1&lt;/div&gt;&lt;div&gt;Есть авторизованный учитель&lt;/div&gt;&lt;div&gt;И есть учебное заведение&amp;nbsp;&lt;/div&gt;&lt;div&gt;И учитель переходит на вкладку Расписание&lt;/div&gt;&lt;div&gt;Тогда отдается&amp;nbsp;расписание для данного учителя&lt;/div&gt;&lt;div&gt;И есть возможность просмотра расписания за разные периоды временис с точностью до дня&lt;/div&gt;&lt;div&gt;И в описании учебного дня учитель видит список занятий&lt;/div&gt;&lt;div&gt;&lt;br&gt;&lt;/div&gt;&lt;div&gt;2.2&lt;/div&gt;&lt;div&gt;Когда учитель нажимает на выбранное занятие&amp;nbsp;&lt;/div&gt;&lt;div&gt;Тогда отдается&amp;nbsp;карточка занятия&lt;/div&gt;&lt;div&gt;И список учеников записавшихся на занятие&lt;/div&gt;&lt;div&gt;&lt;br&gt;&lt;/div&gt;&lt;div&gt;2.3&lt;/div&gt;&lt;/div&gt;&lt;div style=&quot;caret-color: rgba(0, 0, 0, 0.847); color: rgba(0, 0, 0, 0.847); font-family: -apple-system-font; font-size: 12px; font-weight: 400;&quot;&gt;Когда учитель нажимает на одного из учеников записавшихся на занятие&lt;br&gt;&lt;/div&gt;&lt;div style=&quot;caret-color: rgba(0, 0, 0, 0.847); color: rgba(0, 0, 0, 0.847); font-family: -apple-system-font; font-size: 12px; font-weight: 400;&quot;&gt;Тогда отдается карточка ученика&amp;nbsp;&lt;/div&gt;&lt;div style=&quot;caret-color: rgba(0, 0, 0, 0.847); color: rgba(0, 0, 0, 0.847); font-family: -apple-system-font; font-size: 12px; font-weight: 400;&quot;&gt;И появляется возможность присвоения оценки ученику&lt;/div&gt;&lt;/h1&gt;" style="text;html=1;whiteSpace=wrap;overflow=hidden;rounded=0;" vertex="1" parent="WIyWlLk6GJQsqaUBKTNV-1">
          <mxGeometry x="40" y="200" width="760" height="870" as="geometry" />
        </mxCell>
        <mxCell id="jaama6yFhErnNW8vCP5A-27" value="&lt;h1 style=&quot;margin-top: 0px;&quot;&gt;&lt;font face=&quot;Times New Roman&quot; style=&quot;font-size: 14px;&quot;&gt;Сервис учеников:&lt;/font&gt;&lt;/h1&gt;&lt;p&gt;&lt;font style=&quot;font-size: 14px;&quot; face=&quot;Times New Roman&quot;&gt;Принимает, валидирует, отдает, хранит всю информацию об учащемся.&lt;/font&gt;&lt;/p&gt;&lt;p&gt;&lt;font style=&quot;font-size: 14px;&quot; face=&quot;Times New Roman&quot;&gt;Общается по http, набор методов CRUD.&lt;/font&gt;&lt;/p&gt;" style="text;html=1;whiteSpace=wrap;overflow=hidden;rounded=0;" vertex="1" parent="WIyWlLk6GJQsqaUBKTNV-1">
          <mxGeometry x="43" y="1760" width="757" height="110" as="geometry" />
        </mxCell>
        <mxCell id="jaama6yFhErnNW8vCP5A-28" value="&lt;h1 style=&quot;margin-top: 0px;&quot;&gt;&lt;font face=&quot;Times New Roman&quot; style=&quot;font-size: 14px;&quot;&gt;Сервис учителей:&lt;/font&gt;&lt;/h1&gt;&lt;p&gt;&lt;font style=&quot;font-size: 14px;&quot; face=&quot;Times New Roman&quot;&gt;Принимает,&amp;nbsp;&lt;/font&gt;&lt;span style=&quot;font-family: &amp;quot;Times New Roman&amp;quot;; font-size: 14px; background-color: initial;&quot;&gt;валидирует,&lt;/span&gt;&lt;span style=&quot;font-size: 14px; font-family: &amp;quot;Times New Roman&amp;quot;; background-color: initial;&quot;&gt;&amp;nbsp;отдает, хранит всю информацию об учителе.&lt;/span&gt;&lt;/p&gt;&lt;p&gt;&lt;span style=&quot;font-family: &amp;quot;Times New Roman&amp;quot;; font-size: 14px;&quot;&gt;Общается по http, набор методов CRUD.&lt;/span&gt;&lt;span style=&quot;font-size: 14px; font-family: &amp;quot;Times New Roman&amp;quot;; background-color: initial;&quot;&gt;&lt;br&gt;&lt;/span&gt;&lt;/p&gt;" style="text;html=1;whiteSpace=wrap;overflow=hidden;rounded=0;" vertex="1" parent="WIyWlLk6GJQsqaUBKTNV-1">
          <mxGeometry x="40" y="1870" width="760" height="110" as="geometry" />
        </mxCell>
        <mxCell id="jaama6yFhErnNW8vCP5A-29" value="&lt;h1 style=&quot;margin-top: 0px;&quot;&gt;&lt;font face=&quot;Times New Roman&quot; style=&quot;font-size: 14px;&quot;&gt;Сервис расписания:&lt;/font&gt;&lt;/h1&gt;&lt;p&gt;&lt;font style=&quot;font-size: 14px;&quot; face=&quot;Times New Roman&quot;&gt;Принимает,&amp;nbsp;&lt;/font&gt;&lt;span style=&quot;font-family: &amp;quot;Times New Roman&amp;quot;; font-size: 14px; background-color: initial;&quot;&gt;валидирует,&amp;nbsp;&lt;/span&gt;&lt;span style=&quot;font-size: 14px; font-family: &amp;quot;Times New Roman&amp;quot;; background-color: initial;&quot;&gt;отдает, хранит всю информацию о расписании.&lt;/span&gt;&lt;/p&gt;&lt;p&gt;&lt;span style=&quot;font-size: 14px; font-family: &amp;quot;Times New Roman&amp;quot;; background-color: initial;&quot;&gt;Делает запросы к сервисам Учеников и Учителей.&lt;/span&gt;&lt;/p&gt;&lt;p&gt;&lt;span style=&quot;font-family: &amp;quot;Times New Roman&amp;quot;; font-size: 14px;&quot;&gt;Общается по http, набор методов CRUD.&lt;/span&gt;&lt;span style=&quot;font-size: 14px; font-family: &amp;quot;Times New Roman&amp;quot;; background-color: initial;&quot;&gt;&lt;br&gt;&lt;/span&gt;&lt;/p&gt;&lt;p&gt;&lt;font face=&quot;Times New Roman&quot;&gt;&lt;span style=&quot;font-size: 14px;&quot;&gt;Dependency: сервис учеников, сервис учителей.&lt;/span&gt;&lt;/font&gt;&lt;/p&gt;" style="text;html=1;whiteSpace=wrap;overflow=hidden;rounded=0;" vertex="1" parent="WIyWlLk6GJQsqaUBKTNV-1">
          <mxGeometry x="40" y="1980" width="770" height="170" as="geometry" />
        </mxCell>
        <mxCell id="jaama6yFhErnNW8vCP5A-31" value="&lt;h1 style=&quot;margin-top: 0px;&quot;&gt;&lt;font face=&quot;Times New Roman&quot; style=&quot;font-size: 14px;&quot;&gt;Сервис аналитики:&lt;/font&gt;&lt;/h1&gt;&lt;p&gt;&lt;font style=&quot;font-size: 14px;&quot; face=&quot;Times New Roman&quot;&gt;Принимает фильтры и&lt;/font&gt;&lt;span style=&quot;font-family: &amp;quot;Times New Roman&amp;quot;; font-size: 14px; background-color: initial;&quot;&gt;&amp;nbsp;&lt;/span&gt;&lt;span style=&quot;font-size: 14px; font-family: &amp;quot;Times New Roman&amp;quot;; background-color: initial;&quot;&gt;отдает результат анализа на основании полученных фильтров.&lt;/span&gt;&lt;/p&gt;&lt;p&gt;&lt;span style=&quot;font-size: 14px; font-family: &amp;quot;Times New Roman&amp;quot;; background-color: initial;&quot;&gt;Делает запросы к сервисам Учеников, Учителей и Расписания.&lt;/span&gt;&lt;/p&gt;&lt;p&gt;&lt;font face=&quot;Times New Roman&quot;&gt;&lt;span style=&quot;font-size: 14px;&quot;&gt;Обработка запросов происходит в асинхронном режиме, результат отдается в Kafka.&lt;/span&gt;&lt;/font&gt;&lt;/p&gt;&lt;p&gt;&lt;font face=&quot;Times New Roman&quot;&gt;&lt;span style=&quot;font-size: 14px;&quot;&gt;Общается по http методы GET и tcp в роли kafka producer&lt;/span&gt;&lt;/font&gt;&lt;/p&gt;&lt;p&gt;&lt;font face=&quot;Times New Roman&quot;&gt;&lt;span style=&quot;font-size: 14px;&quot;&gt;Dependency:&amp;nbsp;&lt;/span&gt;&lt;/font&gt;&lt;span style=&quot;font-family: &amp;quot;Times New Roman&amp;quot;; font-size: 14px; background-color: initial;&quot;&gt;сервис учеников, сервис учителей и сервис расписания.&lt;/span&gt;&lt;/p&gt;" style="text;html=1;whiteSpace=wrap;overflow=hidden;rounded=0;" vertex="1" parent="WIyWlLk6GJQsqaUBKTNV-1">
          <mxGeometry x="43" y="2150" width="770" height="200" as="geometry" />
        </mxCell>
      </root>
    </mxGraphModel>
  </diagram>
</mxfile>
